<svg width="140" height="33" viewBox="0 0 140 33" fill="none" xmlns="http://www.w3.org/2000/svg">
<path d="M67.8137 0.694435C68.4606 0.850376 69.1319 1.33691 69.498 1.92949C70.1998 3.03979 69.8337 4.61792 68.7108 5.3602C68.1677 5.72198 67.7832 5.82178 67.0448 5.79059C66.5017 5.77188 66.3675 5.74069 66.0135 5.57228C64.3536 4.77386 63.9814 2.69048 65.2812 1.42424C65.4765 1.23711 65.7511 1.01879 65.8915 0.943941C66.4407 0.657009 67.234 0.557207 67.8137 0.694435Z" fill="#8C84F8"/>
<path d="M71.4691 6.54536C72.3845 6.84476 73.0863 7.59952 73.3182 8.52269C73.3975 8.85329 73.4097 9.52695 73.3975 13.7187L73.3792 18.5404L73.2083 18.6901C73.0496 18.8273 72.9825 18.8398 72.4089 18.8398C71.8108 18.8398 71.7681 18.8335 71.6156 18.6776L71.4569 18.5092L71.4447 14.2613L71.4264 10.0135L70.9504 9.99478L70.4805 9.97606V20.7547V31.5396L70.3462 31.8141C70.1265 32.2569 69.9374 32.3193 68.9854 32.3006C68.3019 32.2819 68.1676 32.2632 68.0273 32.1571C67.6855 31.8889 67.7039 32.2944 67.6733 25.3269L67.6428 18.8709H67.1851H66.7275L66.6969 25.2645C66.6664 31.5147 66.6664 31.6644 66.5444 31.8702C66.3369 32.232 66.105 32.3131 65.2568 32.3131C64.5916 32.3131 64.5 32.3006 64.317 32.1696C63.8654 31.864 63.902 32.4191 63.8288 24.9215C63.7983 21.2163 63.7677 16.3385 63.7677 14.0804V9.9823H63.3406H62.9134V14.2301V18.478L62.7364 18.6589C62.5595 18.8335 62.535 18.8398 61.9675 18.8398C61.4 18.8398 61.3756 18.8335 61.1986 18.6589L61.0216 18.478V13.6812C61.0216 8.42289 61.0155 8.4915 61.3878 7.83031C61.6014 7.44982 62.1201 6.93209 62.4618 6.7512C62.9744 6.48298 63.3162 6.42684 64.3841 6.42684H65.4093L65.6229 7.12546C65.7389 7.51219 65.9768 8.31061 66.1538 8.90319C66.3308 9.49576 66.4895 9.96982 66.5017 9.95111C66.5139 9.93864 66.5993 9.38972 66.6847 8.7223L66.8495 7.51843L67.1363 7.49972C67.3011 7.48724 67.4292 7.50595 67.4353 7.5309C67.472 8.00497 67.7893 9.98854 67.8198 9.91992C67.8381 9.87002 68.0822 9.06537 68.3629 8.14219L68.8694 6.45803L69.9984 6.44555C70.9443 6.43308 71.1762 6.45179 71.4691 6.54536Z" fill="#8C84F8"/>
<path d="M67.594 6.50792C67.5818 6.55158 67.533 6.75118 67.4903 6.94455L67.4171 7.30634L67.1363 7.28762L66.8556 7.26891L66.7763 6.89465C66.7336 6.68881 66.7031 6.50168 66.697 6.47049C66.697 6.44554 66.9044 6.42683 67.1607 6.42683C67.5147 6.42683 67.6184 6.44554 67.594 6.50792Z" fill="#8C84F8"/>
<path d="M62.3031 19.8066V20.2744H62.6998C63.3955 20.2744 63.3405 19.9625 63.3405 23.9359C63.3405 25.9756 63.3161 27.3915 63.2795 27.4477C63.1941 27.5912 60.9545 27.6223 60.7409 27.4789L60.5944 27.3853V23.992C60.5944 20.6549 60.5944 20.5988 60.7226 20.4366C60.8324 20.2931 60.8873 20.2744 61.2413 20.2744H61.6318V19.8066V19.3387H61.9675H62.3031V19.8066Z" fill="#8C84F8"/>
<path d="M22.2726 16.4C21.6486 16.096 21.3366 15.544 21.3366 14.744C21.3366 13.944 21.6566 13.384 22.2966 13.064C27.7846 9.816 30.9366 7.944 31.7526 7.448C32.5686 6.952 33.0566 6.68 33.2166 6.632C33.3926 6.552 33.6006 6.512 33.8406 6.512C34.2726 6.512 34.7206 6.904 35.1846 7.688C35.4886 8.184 35.6406 8.56 35.6406 8.816C35.6406 9.056 35.5846 9.264 35.4726 9.44C35.3286 9.696 35.0006 9.992 34.4886 10.328C29.7206 13.144 27.2406 14.616 27.0486 14.744L34.4886 19.16C34.7926 19.336 35.0086 19.48 35.1366 19.592C35.4886 19.88 35.6646 20.192 35.6646 20.528C35.6646 20.848 35.5206 21.24 35.2326 21.704C34.9606 22.152 34.7126 22.472 34.4886 22.664C34.2646 22.856 34.0326 22.952 33.7926 22.952C33.4726 22.952 33.0566 22.8 32.5446 22.496L22.2726 16.4ZM58.0314 5.504C59.1034 5.888 59.6394 6.4 59.6394 7.04C59.6394 7.248 59.5434 7.64 59.3514 8.216L54.7434 21.536C54.7114 21.648 54.6554 21.784 54.5754 21.944C54.4954 22.104 54.2794 22.32 53.9274 22.592C53.5914 22.848 53.1834 22.976 52.7034 22.976C52.2394 22.976 51.8314 22.848 51.4794 22.592C51.1434 22.32 50.9194 22.056 50.8074 21.8L47.9994 13.52C46.2234 18.768 45.3194 21.44 45.2874 21.536C45.2554 21.632 45.1834 21.768 45.0714 21.944C44.9594 22.12 44.8314 22.28 44.6874 22.424C44.3194 22.792 43.8794 22.976 43.3674 22.976C42.8554 22.976 42.4314 22.856 42.0954 22.616C41.7754 22.376 41.5594 22.136 41.4474 21.896L41.2794 21.536L36.6474 8.216C36.4714 7.688 36.3834 7.296 36.3834 7.04C36.3834 6.4 36.9194 5.896 37.9914 5.528C38.4554 5.368 38.8714 5.288 39.2394 5.288C39.6234 5.288 39.9114 5.416 40.1034 5.672C40.3114 5.928 40.4954 6.32 40.6554 6.848L43.2954 14.864L45.9114 6.968C46.1354 6.296 46.5434 5.832 47.1354 5.576C47.3914 5.464 47.7194 5.408 48.1194 5.408C48.5354 5.408 48.9194 5.544 49.2714 5.816C49.6234 6.072 49.8474 6.328 49.9434 6.584L52.7034 14.912L55.3434 6.848C55.4714 6.48 55.5754 6.208 55.6554 6.032C55.7354 5.856 55.8794 5.688 56.0874 5.528C56.3114 5.352 56.5834 5.264 56.9034 5.264C57.2234 5.264 57.5994 5.344 58.0314 5.504Z" fill="white"/>
<path d="M89.424 20.024C89.664 20.6 89.784 21.016 89.784 21.272C89.784 21.88 89.288 22.392 88.296 22.808C87.784 23.032 87.368 23.144 87.048 23.144C86.744 23.144 86.488 23.072 86.28 22.928C86.088 22.768 85.944 22.608 85.848 22.448C85.688 22.144 85.064 20.696 83.976 18.104L83.232 18.152H80.208V20.864C80.208 21.232 80.192 21.512 80.16 21.704C80.144 21.88 80.072 22.088 79.944 22.328C79.72 22.76 79.096 22.976 78.072 22.976C76.952 22.976 76.296 22.68 76.104 22.088C76.008 21.816 75.96 21.4 75.96 20.84V7.52C75.96 7.152 75.968 6.88 75.984 6.704C76.016 6.512 76.096 6.296 76.224 6.056C76.448 5.624 77.072 5.408 78.096 5.408H83.28C84.688 5.408 86.056 5.92 87.384 6.944C88.024 7.44 88.552 8.112 88.968 8.96C89.384 9.808 89.592 10.752 89.592 11.792C89.592 13.6 88.992 15.088 87.792 16.256C88.144 17.104 88.688 18.36 89.424 20.024ZM80.208 13.904H83.28C83.744 13.904 84.208 13.728 84.672 13.376C85.136 13.024 85.368 12.496 85.368 11.792C85.368 11.088 85.136 10.56 84.672 10.208C84.208 9.84 83.728 9.656 83.232 9.656H80.208V13.904ZM95.3486 18.752H102.741C103.109 18.752 103.381 18.768 103.557 18.8C103.749 18.816 103.965 18.888 104.205 19.016C104.637 19.24 104.853 19.864 104.853 20.888C104.853 22.008 104.557 22.664 103.965 22.856C103.693 22.952 103.277 23 102.717 23H93.2126C92.0926 23 91.4366 22.696 91.2446 22.088C91.1486 21.832 91.1006 21.424 91.1006 20.864V7.52C91.1006 6.704 91.2526 6.152 91.5566 5.864C91.8606 5.56 92.4366 5.408 93.2846 5.408H102.741C103.109 5.408 103.381 5.424 103.557 5.456C103.749 5.472 103.965 5.544 104.205 5.672C104.637 5.896 104.853 6.52 104.853 7.544C104.853 8.664 104.557 9.32 103.965 9.512C103.693 9.608 103.277 9.656 102.717 9.656H95.3486V12.08H100.101C100.469 12.08 100.741 12.096 100.917 12.128C101.109 12.144 101.325 12.216 101.565 12.344C101.997 12.568 102.213 13.192 102.213 14.216C102.213 15.336 101.909 15.992 101.301 16.184C101.029 16.28 100.613 16.328 100.053 16.328H95.3486V18.752ZM119.149 13.064C119.789 13.384 120.109 13.944 120.109 14.744C120.109 15.544 119.797 16.096 119.173 16.4L108.925 22.496C108.109 23.024 107.453 23.08 106.957 22.664C106.733 22.472 106.501 22.184 106.261 21.8C105.941 21.272 105.781 20.888 105.781 20.648C105.781 20.408 105.829 20.2 105.925 20.024C106.101 19.752 106.445 19.464 106.957 19.16L114.421 14.744L106.981 10.328C106.693 10.152 106.477 10.008 106.333 9.896C105.981 9.592 105.805 9.264 105.805 8.912C105.805 8.592 105.941 8.208 106.213 7.76C106.709 6.928 107.173 6.512 107.605 6.512C107.989 6.512 108.421 6.664 108.901 6.968L119.149 13.064Z" fill="white"/>
</svg>
