<svg width="165" height="51" viewBox="0 0 165 51" fill="none" xmlns="http://www.w3.org/2000/svg">
<path d="M77.5402 1.07321C78.5472 1.31421 79.5921 2.06612 80.162 2.98193C81.2544 4.69785 80.6846 7.13677 78.9366 8.28393C78.0913 8.84305 77.4927 8.99728 76.3433 8.94908C75.4979 8.92017 75.2891 8.87196 74.738 8.61169C72.1542 7.37777 71.5748 4.158 73.5981 2.20109C73.9021 1.91189 74.3296 1.57448 74.5481 1.45881C75.403 1.01537 76.6379 0.861126 77.5402 1.07321Z" fill="#8C84F8"/>
<path d="M83.2302 10.1155C84.6551 10.5782 85.7476 11.7447 86.1085 13.1714C86.232 13.6823 86.251 14.7234 86.232 21.2015L86.2035 28.6532L85.9375 28.8845C85.6904 29.0967 85.586 29.1159 84.6931 29.1159C83.7621 29.1159 83.6956 29.1063 83.4583 28.8654L83.2112 28.605L83.1922 22.0402L83.1638 15.4754L82.4228 15.4464L81.6914 15.4175V32.0754V48.743L81.4823 49.1671C81.1403 49.8516 80.846 49.948 79.3641 49.9191C78.3001 49.8902 78.0911 49.8612 77.8727 49.6973C77.3407 49.2828 77.3693 49.9094 77.3217 39.1416L77.2742 29.1641H76.5617H75.8494L75.8018 39.0451C75.7543 48.7044 75.7543 48.9357 75.5644 49.2539C75.2414 49.8131 74.8804 49.9383 73.5601 49.9383C72.5247 49.9383 72.3821 49.9191 72.0972 49.7167C71.3943 49.2442 71.4512 50.1022 71.3373 38.5149C71.2898 32.7888 71.2422 25.2503 71.2422 21.7606V15.4271H70.5774H69.9124V21.992V28.5568L69.6369 28.8363C69.3615 29.1063 69.3234 29.1159 68.44 29.1159C67.5566 29.1159 67.5186 29.1063 67.2431 28.8363L66.9676 28.5568V21.1437C66.9676 13.0171 66.9581 13.1232 67.5376 12.1013C67.8701 11.5133 68.6775 10.7132 69.2094 10.4336C70.0073 10.0191 70.5394 9.93234 72.2017 9.93234H73.7975L74.13 11.012C74.3106 11.6097 74.6809 12.8436 74.9564 13.7594C75.2319 14.6752 75.479 15.4079 75.4979 15.3789C75.5169 15.3597 75.6499 14.5113 75.7828 13.4799L76.0393 11.6193L76.4858 11.5904C76.7423 11.5711 76.9417 11.6001 76.9512 11.6386C77.0083 12.3713 77.5022 15.4368 77.5497 15.3307C77.5782 15.2536 77.9582 14.0101 78.3951 12.5833L79.1835 9.98055L80.9409 9.96126C82.4133 9.94199 82.7743 9.9709 83.2302 10.1155Z" fill="#8C84F8"/>
<path d="M77.1982 10.0576C77.1792 10.1251 77.1033 10.4336 77.0368 10.7324L76.9229 11.2915L76.4858 11.2626L76.0488 11.2337L75.9254 10.6553C75.8589 10.3372 75.8114 10.048 75.8019 9.99979C75.8019 9.96123 76.1248 9.93231 76.5237 9.93231C77.0748 9.93231 77.2362 9.96123 77.1982 10.0576Z" fill="#8C84F8"/>
<path d="M68.9624 30.6102V31.3332H69.5799C70.6628 31.3332 70.5772 30.8511 70.5772 36.9918C70.5772 40.1441 70.5392 42.3323 70.4822 42.4192C70.3493 42.641 66.8631 42.689 66.5307 42.4674L66.3026 42.3227V37.0786C66.3026 31.9212 66.3026 31.8345 66.5022 31.5838C66.6731 31.3621 66.7585 31.3332 67.3096 31.3332H67.9174V30.6102V29.8871H68.44H68.9624V30.6102Z" fill="#8C84F8"/>
<path d="M6.65071 25.3455C5.67939 24.8756 5.19373 24.0226 5.19373 22.7862C5.19373 21.5498 5.69184 20.6844 6.68806 20.1898C15.2307 15.1702 20.1372 12.2771 21.4074 11.5106C22.6776 10.744 23.4372 10.3236 23.6862 10.2495C23.9602 10.1258 24.284 10.064 24.6576 10.064C25.33 10.064 26.0274 10.6698 26.7496 11.8815C27.2228 12.648 27.4594 13.2291 27.4594 13.6247C27.4594 13.9956 27.3723 14.3171 27.1979 14.5891C26.9738 14.9847 26.4632 15.4422 25.6662 15.9615C18.2444 20.3135 14.3839 22.5884 14.085 22.7862L25.6662 29.6109C26.1394 29.8829 26.4757 30.1055 26.6749 30.2786C27.2228 30.7236 27.4968 31.2058 27.4968 31.7251C27.4968 32.2196 27.2727 32.8255 26.8244 33.5426C26.401 34.2349 26.0149 34.7295 25.6662 35.0262C25.3176 35.3229 24.9564 35.4713 24.5828 35.4713C24.0847 35.4713 23.4372 35.2364 22.6402 34.7666L6.65071 25.3455ZM62.313 8.50619C63.9817 9.09965 64.8161 9.89092 64.8161 10.88C64.8161 11.2015 64.6666 11.8073 64.3678 12.6975L57.1949 33.2829C57.1451 33.456 57.058 33.6662 56.9334 33.9135C56.8089 34.1607 56.4727 34.4946 55.9247 34.9149C55.4017 35.3106 54.7666 35.5084 54.0195 35.5084C53.2972 35.5084 52.6621 35.3106 52.1142 34.9149C51.5912 34.4946 51.2425 34.0866 51.0681 33.6909L46.6972 20.8946C43.9327 29.0051 42.5255 33.1346 42.4757 33.2829C42.4259 33.4313 42.3138 33.6415 42.1395 33.9135C41.9651 34.1855 41.7659 34.4327 41.5417 34.6553C40.9689 35.224 40.284 35.5084 39.487 35.5084C38.69 35.5084 38.03 35.3229 37.507 34.952C37.0089 34.5811 36.6727 34.2102 36.4983 33.8393L36.2368 33.2829L29.0266 12.6975C28.7527 11.8815 28.6157 11.2756 28.6157 10.88C28.6157 9.89092 29.45 9.11201 31.1187 8.54328C31.841 8.29601 32.4885 8.17238 33.0614 8.17238C33.6591 8.17238 34.1074 8.37019 34.4063 8.76583C34.73 9.16147 35.0164 9.76728 35.2655 10.5833L39.3749 22.9716L43.447 10.7687C43.7957 9.73019 44.4308 9.0131 45.3523 8.61747C45.7508 8.44438 46.2614 8.35783 46.884 8.35783C47.5315 8.35783 48.1293 8.56801 48.6772 8.98838C49.2251 9.38401 49.5738 9.77965 49.7232 10.1753L54.0195 23.0458L58.1289 10.5833C58.3281 10.0146 58.49 9.59419 58.6146 9.32219C58.7391 9.05019 58.9632 8.79056 59.287 8.54328C59.6357 8.27128 60.0591 8.13528 60.5572 8.13528C61.0553 8.13528 61.6406 8.25892 62.313 8.50619Z" fill="white"/>
<path d="M111.179 30.9462C111.552 31.8364 111.739 32.4793 111.739 32.8749C111.739 33.8145 110.967 34.6058 109.423 35.2487C108.626 35.5949 107.978 35.768 107.48 35.768C107.007 35.768 106.609 35.6567 106.285 35.4342C105.986 35.1869 105.762 34.9396 105.612 34.6924C105.363 34.2225 104.392 31.9847 102.698 27.9789L101.54 28.0531H96.8332V32.2444C96.8332 32.8131 96.8083 33.2458 96.7585 33.5425C96.7336 33.8145 96.6215 34.136 96.4223 34.5069C96.0736 35.1745 95.1023 35.5084 93.5083 35.5084C91.7649 35.5084 90.7438 35.0509 90.4449 34.136C90.2955 33.7156 90.2208 33.0727 90.2208 32.2073V11.6218C90.2208 11.0531 90.2332 10.6327 90.2581 10.3607C90.3079 10.064 90.4325 9.73018 90.6317 9.35927C90.9804 8.69164 91.9517 8.35782 93.5457 8.35782H101.615C103.807 8.35782 105.936 9.14909 108.003 10.7316C109 11.4982 109.822 12.5367 110.469 13.8473C111.117 15.1578 111.44 16.6167 111.44 18.224C111.44 21.0182 110.506 23.3178 108.639 25.1229C109.186 26.4335 110.033 28.3745 111.179 30.9462ZM96.8332 21.488H101.615C102.337 21.488 103.06 21.216 103.782 20.672C104.504 20.128 104.865 19.312 104.865 18.224C104.865 17.136 104.504 16.32 103.782 15.776C103.06 15.2073 102.312 14.9229 101.54 14.9229H96.8332V21.488ZM120.401 28.9804H131.908C132.48 28.9804 132.904 29.0051 133.178 29.0545C133.477 29.0793 133.813 29.1905 134.186 29.3884C134.859 29.7345 135.195 30.6989 135.195 32.2815C135.195 34.0124 134.734 35.0262 133.813 35.3229C133.389 35.4713 132.742 35.5455 131.87 35.5455H117.076C115.333 35.5455 114.312 35.0756 114.013 34.136C113.863 33.7404 113.789 33.1098 113.789 32.2444V11.6218C113.789 10.3607 114.025 9.50764 114.498 9.06255C114.972 8.59273 115.868 8.35782 117.188 8.35782H131.908C132.48 8.35782 132.904 8.38255 133.178 8.432C133.477 8.45673 133.813 8.568 134.186 8.76582C134.859 9.112 135.195 10.0764 135.195 11.6589C135.195 13.3898 134.734 14.4036 133.813 14.7004C133.389 14.8487 132.742 14.9229 131.87 14.9229H120.401V18.6691H127.798C128.371 18.6691 128.794 18.6938 129.068 18.7433C129.367 18.768 129.703 18.8793 130.077 19.0771C130.749 19.4233 131.086 20.3876 131.086 21.9702C131.086 23.7011 130.612 24.7149 129.666 25.0116C129.243 25.16 128.595 25.2342 127.723 25.2342H120.401V28.9804ZM157.449 20.1898C158.445 20.6844 158.943 21.5498 158.943 22.7862C158.943 24.0225 158.458 24.8756 157.486 25.3455L141.535 34.7665C140.264 35.5825 139.243 35.6691 138.471 35.0262C138.123 34.7295 137.761 34.2844 137.388 33.6909C136.89 32.8749 136.641 32.2815 136.641 31.9105C136.641 31.5396 136.715 31.2182 136.865 30.9462C137.139 30.5258 137.674 30.0807 138.471 29.6109L150.09 22.7862L138.509 15.9615C138.06 15.6895 137.724 15.4669 137.5 15.2938C136.952 14.824 136.678 14.3171 136.678 13.7731C136.678 13.2785 136.89 12.6851 137.313 11.9927C138.085 10.7069 138.808 10.064 139.48 10.064C140.078 10.064 140.75 10.2989 141.497 10.7687L157.449 20.1898Z" fill="white"/>
</svg>
