<svg width="118" height="51" viewBox="0 0 118 51" fill="none" xmlns="http://www.w3.org/2000/svg">
<path d="M54.014 1.09605C55.035 1.34217 56.0944 2.11007 56.6723 3.04534C57.78 4.79774 57.2021 7.28851 55.4299 8.46006C54.5726 9.03106 53.9659 9.18858 52.8004 9.13936C51.9432 9.10982 51.7313 9.0606 51.1727 8.79479C48.5529 7.53463 47.9654 4.24643 50.0169 2.2479C50.3251 1.95256 50.7585 1.60798 50.9801 1.48984C51.8469 1.03698 53.099 0.879457 54.014 1.09605Z" fill="#8C84F8"/>
<path d="M59.7833 10.3306C61.228 10.8031 62.3357 11.9944 62.7017 13.4514C62.8269 13.9732 62.8462 15.0365 62.8269 21.6523L62.798 29.2624L62.5283 29.4987C62.2779 29.7153 62.1719 29.7349 61.2666 29.7349C60.3227 29.7349 60.2553 29.7251 60.0145 29.479L59.764 29.2132L59.7448 22.5088L59.7159 15.8044L58.9646 15.7748L58.223 15.7453V32.7573V49.7792L58.0111 50.2124C57.6643 50.9114 57.3658 51.0098 55.8632 50.9803C54.7845 50.9508 54.5726 50.9212 54.3511 50.7539C53.8117 50.3305 53.8406 50.9705 53.7924 39.9737L53.7443 29.7842H53.0219H52.2995L52.2514 39.8752C52.2032 49.7398 52.2032 49.9761 52.0106 50.301C51.6831 50.872 51.3171 51 49.9783 51C48.9285 51 48.784 50.9803 48.495 50.7736C47.7823 50.2912 47.8401 51.1674 47.7245 39.3338C47.6764 33.4859 47.6282 25.7871 47.6282 22.2233V15.7551H46.954H46.2798V22.4595V29.1639L46.0005 29.4494C45.7211 29.7251 45.6826 29.7349 44.7869 29.7349C43.8911 29.7349 43.8526 29.7251 43.5733 29.4494L43.294 29.1639V21.5932C43.294 13.2939 43.2843 13.4022 43.8719 12.3586C44.209 11.7581 45.0277 10.941 45.567 10.6555C46.3761 10.2321 46.9155 10.1435 48.601 10.1435H50.2191L50.5562 11.2462C50.7392 11.8565 51.1148 13.1167 51.3942 14.052C51.6735 14.9872 51.9239 15.7354 51.9432 15.7059C51.9624 15.6862 52.0973 14.8199 52.2321 13.7665L52.4922 11.8664L52.9449 11.8369C53.2049 11.8172 53.4072 11.8467 53.4168 11.8861C53.4746 12.6343 53.9754 15.765 54.0236 15.6567C54.0525 15.5779 54.4378 14.3079 54.8808 12.8509L55.6802 10.1927L57.4621 10.1731C58.955 10.1534 59.321 10.1829 59.7833 10.3306Z" fill="#8C84F8"/>
<path d="M53.6673 10.2715C53.648 10.3404 53.5709 10.6554 53.5035 10.9606L53.3879 11.5316L52.9449 11.5021L52.5018 11.4726L52.3766 10.8819C52.3092 10.557 52.261 10.2617 52.2514 10.2124C52.2514 10.173 52.5789 10.1435 52.9834 10.1435C53.542 10.1435 53.7058 10.173 53.6673 10.2715Z" fill="#8C84F8"/>
<path d="M45.3165 31.2609V31.9993H45.9426C47.0406 31.9993 46.9539 31.507 46.9539 37.7782C46.9539 40.9975 46.9154 43.2323 46.8576 43.3209C46.7227 43.5474 43.1879 43.5966 42.8508 43.3702L42.6197 43.2225V37.8668C42.6197 32.5998 42.6197 32.5112 42.8219 32.2552C42.9953 32.0288 43.082 31.9993 43.6406 31.9993H44.257V31.2609V30.5225H44.7868H45.3165V31.2609Z" fill="#8C84F8"/>
<path d="M39.1595 10.382C41.0355 11.054 41.9735 11.95 41.9735 13.07C41.9735 13.434 41.8055 14.12 41.4695 15.128L33.4055 38.438C33.3495 38.634 33.2515 38.872 33.1115 39.152C32.9715 39.432 32.5935 39.81 31.9775 40.286C31.3895 40.734 30.6755 40.958 29.8355 40.958C29.0235 40.958 28.3095 40.734 27.6935 40.286C27.1055 39.81 26.7135 39.348 26.5175 38.9L21.6035 24.41C18.4955 33.594 16.9135 38.27 16.8575 38.438C16.8015 38.606 16.6755 38.844 16.4795 39.152C16.2835 39.46 16.0595 39.74 15.8075 39.992C15.1635 40.636 14.3935 40.958 13.4975 40.958C12.6015 40.958 11.8595 40.748 11.2715 40.328C10.7115 39.908 10.3335 39.488 10.1375 39.068L9.84351 38.438L1.73751 15.128C1.42951 14.204 1.27551 13.518 1.27551 13.07C1.27551 11.95 2.21351 11.068 4.08951 10.424C4.90151 10.144 5.62951 10.004 6.27351 10.004C6.94551 10.004 7.44951 10.228 7.78551 10.676C8.14951 11.124 8.47151 11.81 8.75151 12.734L13.3715 26.762L17.9495 12.944C18.3415 11.768 19.0555 10.956 20.0915 10.508C20.5395 10.312 21.1135 10.214 21.8135 10.214C22.5415 10.214 23.2135 10.452 23.8295 10.928C24.4455 11.376 24.8375 11.824 25.0055 12.272L29.8355 26.846L34.4555 12.734C34.6795 12.09 34.8615 11.614 35.0015 11.306C35.1415 10.998 35.3935 10.704 35.7575 10.424C36.1495 10.116 36.6255 9.962 37.1855 9.962C37.7455 9.962 38.4035 10.102 39.1595 10.382Z" fill="white"/>
<path d="M89.0783 35.792C89.4983 36.8 89.7083 37.528 89.7083 37.976C89.7083 39.04 88.8403 39.936 87.1043 40.664C86.2083 41.056 85.4803 41.252 84.9203 41.252C84.3883 41.252 83.9403 41.126 83.5763 40.874C83.2403 40.594 82.9883 40.314 82.8203 40.034C82.5403 39.502 81.4483 36.968 79.5443 32.432L78.2423 32.516H72.9503V37.262C72.9503 37.906 72.9223 38.396 72.8663 38.732C72.8383 39.04 72.7123 39.404 72.4883 39.824C72.0963 40.58 71.0043 40.958 69.2123 40.958C67.2523 40.958 66.1043 40.44 65.7683 39.404C65.6003 38.928 65.5163 38.2 65.5163 37.22V13.91C65.5163 13.266 65.5303 12.79 65.5583 12.482C65.6143 12.146 65.7543 11.768 65.9783 11.348C66.3703 10.592 67.4623 10.214 69.2543 10.214H78.3263C80.7903 10.214 83.1843 11.11 85.5083 12.902C86.6283 13.77 87.5523 14.946 88.2803 16.43C89.0083 17.914 89.3723 19.566 89.3723 21.386C89.3723 24.55 88.3223 27.154 86.2223 29.198C86.8383 30.682 87.7903 32.88 89.0783 35.792ZM72.9503 25.082H78.3263C79.1383 25.082 79.9503 24.774 80.7623 24.158C81.5743 23.542 81.9803 22.618 81.9803 21.386C81.9803 20.154 81.5743 19.23 80.7623 18.614C79.9503 17.97 79.1103 17.648 78.2423 17.648H72.9503V25.082ZM99.4464 33.566H112.382C113.026 33.566 113.502 33.594 113.81 33.65C114.146 33.678 114.524 33.804 114.944 34.028C115.7 34.42 116.078 35.512 116.078 37.304C116.078 39.264 115.56 40.412 114.524 40.748C114.048 40.916 113.32 41 112.34 41H95.7084C93.7484 41 92.6004 40.468 92.2644 39.404C92.0964 38.956 92.0124 38.242 92.0124 37.262V13.91C92.0124 12.482 92.2784 11.516 92.8104 11.012C93.3424 10.48 94.3504 10.214 95.8344 10.214H112.382C113.026 10.214 113.502 10.242 113.81 10.298C114.146 10.326 114.524 10.452 114.944 10.676C115.7 11.068 116.078 12.16 116.078 13.952C116.078 15.912 115.56 17.06 114.524 17.396C114.048 17.564 113.32 17.648 112.34 17.648H99.4464V21.89H107.762C108.406 21.89 108.882 21.918 109.19 21.974C109.526 22.002 109.904 22.128 110.324 22.352C111.08 22.744 111.458 23.836 111.458 25.628C111.458 27.588 110.926 28.736 109.862 29.072C109.386 29.24 108.658 29.324 107.678 29.324H99.4464V33.566Z" fill="white"/>
</svg>
