<svg width="106" height="33" viewBox="0 0 106 33" fill="none" xmlns="http://www.w3.org/2000/svg">
<path d="M49.8137 0.694435C50.4606 0.850376 51.1319 1.33691 51.498 1.92949C52.1998 3.03979 51.8337 4.61792 50.7108 5.3602C50.1677 5.72198 49.7832 5.82178 49.0448 5.79059C48.5017 5.77188 48.3675 5.74069 48.0135 5.57228C46.3536 4.77386 45.9814 2.69048 47.2812 1.42424C47.4765 1.23711 47.7511 1.01879 47.8915 0.943941C48.4407 0.657009 49.234 0.557207 49.8137 0.694435Z" fill="#8C84F8"/>
<path d="M53.4691 6.54533C54.3845 6.84473 55.0863 7.59949 55.3182 8.52266C55.3975 8.85326 55.4097 9.52692 55.3975 13.7186L55.3792 18.5403L55.2083 18.69C55.0496 18.8273 54.9825 18.8397 54.4089 18.8397C53.8108 18.8397 53.7681 18.8335 53.6156 18.6776L53.4569 18.5091L53.4447 14.2613L53.4264 10.0135L52.9504 9.99474L52.4805 9.97603V20.7547V31.5396L52.3462 31.814C52.1265 32.2569 51.9374 32.3193 50.9854 32.3006C50.3019 32.2819 50.1676 32.2631 50.0273 32.1571C49.6855 31.8889 49.7039 32.2943 49.6733 25.3269L49.6428 18.8709H49.1851H48.7275L48.6969 25.2645C48.6664 31.5146 48.6664 31.6643 48.5444 31.8702C48.3369 32.232 48.105 32.313 47.2568 32.313C46.5916 32.313 46.5 32.3006 46.317 32.1696C45.8654 31.8639 45.902 32.4191 45.8288 24.9214C45.7983 21.2163 45.7677 16.3384 45.7677 14.0804V9.98227H45.3406H44.9134V14.2301V18.4779L44.7364 18.6588C44.5595 18.8335 44.535 18.8397 43.9675 18.8397C43.4 18.8397 43.3756 18.8335 43.1986 18.6588L43.0216 18.4779V13.6812C43.0216 8.42286 43.0155 8.49147 43.3878 7.83028C43.6014 7.44978 44.1201 6.93206 44.4618 6.75117C44.9744 6.48295 45.3162 6.42681 46.3841 6.42681H47.4093L47.6229 7.12543C47.7389 7.51216 47.9768 8.31058 48.1538 8.90316C48.3308 9.49573 48.4895 9.96979 48.5017 9.95108C48.5139 9.93861 48.5993 9.38969 48.6847 8.72226L48.8495 7.5184L49.1363 7.49969C49.3011 7.48721 49.4292 7.50592 49.4353 7.53087C49.472 8.00494 49.7893 9.98851 49.8198 9.91989C49.8381 9.86999 50.0822 9.06534 50.3629 8.14216L50.8694 6.458L51.9984 6.44552C52.9443 6.43305 53.1762 6.45176 53.4691 6.54533Z" fill="#8C84F8"/>
<path d="M49.594 6.50789C49.5818 6.55155 49.533 6.75115 49.4903 6.94452L49.4171 7.3063L49.1363 7.28759L48.8556 7.26888L48.7763 6.89462C48.7336 6.68878 48.7031 6.50165 48.697 6.47046C48.697 6.44551 48.9044 6.4268 49.1607 6.4268C49.5147 6.4268 49.6184 6.44551 49.594 6.50789Z" fill="#8C84F8"/>
<path d="M44.3031 19.8066V20.2744H44.6998C45.3955 20.2744 45.3405 19.9625 45.3405 23.9359C45.3405 25.9756 45.3161 27.3915 45.2795 27.4477C45.1941 27.5912 42.9545 27.6223 42.7409 27.4789L42.5944 27.3853V23.992C42.5944 20.6549 42.5944 20.5988 42.7226 20.4366C42.8324 20.2931 42.8873 20.2744 43.2413 20.2744H43.6318V19.8066V19.3387H43.9675H44.3031V19.8066Z" fill="#8C84F8"/>
<path d="M4.27256 16.4C3.64856 16.096 3.33656 15.544 3.33656 14.744C3.33656 13.944 3.65656 13.384 4.29656 13.064C9.78456 9.816 12.9366 7.944 13.7526 7.448C14.5686 6.952 15.0566 6.68 15.2166 6.632C15.3926 6.552 15.6006 6.512 15.8406 6.512C16.2726 6.512 16.7206 6.904 17.1846 7.688C17.4886 8.184 17.6406 8.56 17.6406 8.816C17.6406 9.056 17.5846 9.264 17.4726 9.44C17.3286 9.696 17.0006 9.992 16.4886 10.328C11.7206 13.144 9.24056 14.616 9.04856 14.744L16.4886 19.16C16.7926 19.336 17.0086 19.48 17.1366 19.592C17.4886 19.88 17.6646 20.192 17.6646 20.528C17.6646 20.848 17.5206 21.24 17.2326 21.704C16.9606 22.152 16.7126 22.472 16.4886 22.664C16.2646 22.856 16.0326 22.952 15.7926 22.952C15.4726 22.952 15.0566 22.8 14.5446 22.496L4.27256 16.4ZM40.0314 5.504C41.1034 5.888 41.6394 6.4 41.6394 7.04C41.6394 7.248 41.5434 7.64 41.3514 8.216L36.7434 21.536C36.7114 21.648 36.6554 21.784 36.5754 21.944C36.4954 22.104 36.2794 22.32 35.9274 22.592C35.5914 22.848 35.1834 22.976 34.7034 22.976C34.2394 22.976 33.8314 22.848 33.4794 22.592C33.1434 22.32 32.9194 22.056 32.8074 21.8L29.9994 13.52C28.2234 18.768 27.3194 21.44 27.2874 21.536C27.2554 21.632 27.1834 21.768 27.0714 21.944C26.9594 22.12 26.8314 22.28 26.6874 22.424C26.3194 22.792 25.8794 22.976 25.3674 22.976C24.8554 22.976 24.4314 22.856 24.0954 22.616C23.7754 22.376 23.5594 22.136 23.4474 21.896L23.2794 21.536L18.6474 8.216C18.4714 7.688 18.3834 7.296 18.3834 7.04C18.3834 6.4 18.9194 5.896 19.9914 5.528C20.4554 5.368 20.8714 5.288 21.2394 5.288C21.6234 5.288 21.9114 5.416 22.1034 5.672C22.3114 5.928 22.4954 6.32 22.6554 6.848L25.2954 14.864L27.9114 6.968C28.1354 6.296 28.5434 5.832 29.1354 5.576C29.3914 5.464 29.7194 5.408 30.1194 5.408C30.5354 5.408 30.9194 5.544 31.2714 5.816C31.6234 6.072 31.8474 6.328 31.9434 6.584L34.7034 14.912L37.3434 6.848C37.4714 6.48 37.5754 6.208 37.6554 6.032C37.7354 5.856 37.8794 5.688 38.0874 5.528C38.3114 5.352 38.5834 5.264 38.9034 5.264C39.2234 5.264 39.5994 5.344 40.0314 5.504Z" fill="white"/>
<path d="M71.424 20.024C71.664 20.6 71.784 21.016 71.784 21.272C71.784 21.88 71.288 22.392 70.296 22.808C69.784 23.032 69.368 23.144 69.048 23.144C68.744 23.144 68.488 23.072 68.28 22.928C68.088 22.768 67.944 22.608 67.848 22.448C67.688 22.144 67.064 20.696 65.976 18.104L65.232 18.152H62.208V20.864C62.208 21.232 62.192 21.512 62.16 21.704C62.144 21.88 62.072 22.088 61.944 22.328C61.72 22.76 61.096 22.976 60.072 22.976C58.952 22.976 58.296 22.68 58.104 22.088C58.008 21.816 57.96 21.4 57.96 20.84V7.52C57.96 7.152 57.968 6.88 57.984 6.704C58.016 6.512 58.096 6.296 58.224 6.056C58.448 5.624 59.072 5.408 60.096 5.408H65.28C66.688 5.408 68.056 5.92 69.384 6.944C70.024 7.44 70.552 8.112 70.968 8.96C71.384 9.808 71.592 10.752 71.592 11.792C71.592 13.6 70.992 15.088 69.792 16.256C70.144 17.104 70.688 18.36 71.424 20.024ZM62.208 13.904H65.28C65.744 13.904 66.208 13.728 66.672 13.376C67.136 13.024 67.368 12.496 67.368 11.792C67.368 11.088 67.136 10.56 66.672 10.208C66.208 9.84 65.728 9.656 65.232 9.656H62.208V13.904ZM77.3486 18.752H84.7406C85.1086 18.752 85.3806 18.768 85.5566 18.8C85.7486 18.816 85.9646 18.888 86.2046 19.016C86.6366 19.24 86.8526 19.864 86.8526 20.888C86.8526 22.008 86.5566 22.664 85.9646 22.856C85.6926 22.952 85.2766 23 84.7166 23H75.2126C74.0926 23 73.4366 22.696 73.2446 22.088C73.1486 21.832 73.1006 21.424 73.1006 20.864V7.52C73.1006 6.704 73.2526 6.152 73.5566 5.864C73.8606 5.56 74.4366 5.408 75.2846 5.408H84.7406C85.1086 5.408 85.3806 5.424 85.5566 5.456C85.7486 5.472 85.9646 5.544 86.2046 5.672C86.6366 5.896 86.8526 6.52 86.8526 7.544C86.8526 8.664 86.5566 9.32 85.9646 9.512C85.6926 9.608 85.2766 9.656 84.7166 9.656H77.3486V12.08H82.1006C82.4686 12.08 82.7406 12.096 82.9166 12.128C83.1086 12.144 83.3246 12.216 83.5646 12.344C83.9966 12.568 84.2126 13.192 84.2126 14.216C84.2126 15.336 83.9086 15.992 83.3006 16.184C83.0286 16.28 82.6126 16.328 82.0526 16.328H77.3486V18.752ZM101.149 13.064C101.789 13.384 102.109 13.944 102.109 14.744C102.109 15.544 101.797 16.096 101.173 16.4L90.9253 22.496C90.1093 23.024 89.4533 23.08 88.9573 22.664C88.7333 22.472 88.5013 22.184 88.2613 21.8C87.9413 21.272 87.7813 20.888 87.7813 20.648C87.7813 20.408 87.8293 20.2 87.9253 20.024C88.1013 19.752 88.4453 19.464 88.9573 19.16L96.4213 14.744L88.9813 10.328C88.6933 10.152 88.4773 10.008 88.3333 9.896C87.9813 9.592 87.8053 9.264 87.8053 8.912C87.8053 8.592 87.9413 8.208 88.2133 7.76C88.7093 6.928 89.1733 6.512 89.6053 6.512C89.9893 6.512 90.4213 6.664 90.9013 6.968L101.149 13.064Z" fill="white"/>
</svg>
