<svg width="168" height="33" viewBox="0 0 168 33" fill="none" xmlns="http://www.w3.org/2000/svg">
<path d="M80.8137 0.694435C81.4606 0.850376 82.1319 1.33691 82.498 1.92949C83.1998 3.03979 82.8337 4.61792 81.7108 5.3602C81.1677 5.72198 80.7832 5.82178 80.0448 5.79059C79.5017 5.77188 79.3675 5.74069 79.0135 5.57228C77.3536 4.77386 76.9814 2.69048 78.2812 1.42424C78.4765 1.23711 78.7511 1.01879 78.8915 0.943941C79.4407 0.657009 80.234 0.557207 80.8137 0.694435Z" fill="#8C84F8"/>
<path d="M84.4691 6.54536C85.3845 6.84476 86.0863 7.59952 86.3182 8.52269C86.3975 8.85329 86.4097 9.52695 86.3975 13.7187L86.3792 18.5404L86.2083 18.6901C86.0496 18.8273 85.9825 18.8398 85.4089 18.8398C84.8108 18.8398 84.7681 18.8335 84.6156 18.6776L84.4569 18.5092L84.4447 14.2613L84.4264 10.0135L83.9504 9.99478L83.4805 9.97606V20.7547V31.5396L83.3462 31.8141C83.1265 32.2569 82.9374 32.3193 81.9854 32.3006C81.3019 32.2819 81.1676 32.2632 81.0273 32.1571C80.6855 31.8889 80.7039 32.2944 80.6733 25.3269L80.6428 18.8709H80.1851H79.7275L79.6969 25.2645C79.6664 31.5147 79.6664 31.6644 79.5444 31.8702C79.3369 32.232 79.105 32.3131 78.2568 32.3131C77.5916 32.3131 77.5 32.3006 77.317 32.1696C76.8654 31.864 76.902 32.4191 76.8288 24.9215C76.7983 21.2163 76.7677 16.3385 76.7677 14.0804V9.9823H76.3406H75.9134V14.2301V18.478L75.7364 18.6589C75.5595 18.8335 75.535 18.8398 74.9675 18.8398C74.4 18.8398 74.3756 18.8335 74.1986 18.6589L74.0216 18.478V13.6812C74.0216 8.42289 74.0155 8.4915 74.3878 7.83031C74.6014 7.44982 75.1201 6.93209 75.4618 6.7512C75.9744 6.48298 76.3162 6.42684 77.3841 6.42684H78.4093L78.6229 7.12546C78.7389 7.51219 78.9768 8.31061 79.1538 8.90319C79.3308 9.49576 79.4895 9.96982 79.5017 9.95111C79.5139 9.93864 79.5993 9.38972 79.6847 8.7223L79.8495 7.51843L80.1363 7.49972C80.3011 7.48724 80.4292 7.50595 80.4353 7.5309C80.472 8.00497 80.7893 9.98854 80.8198 9.91992C80.8381 9.87002 81.0822 9.06537 81.3629 8.14219L81.8694 6.45803L82.9984 6.44555C83.9443 6.43308 84.1762 6.45179 84.4691 6.54536Z" fill="#8C84F8"/>
<path d="M80.594 6.50792C80.5818 6.55158 80.533 6.75118 80.4903 6.94455L80.4171 7.30634L80.1363 7.28762L79.8556 7.26891L79.7763 6.89465C79.7336 6.68881 79.7031 6.50168 79.697 6.47049C79.697 6.44554 79.9044 6.42683 80.1607 6.42683C80.5147 6.42683 80.6184 6.44554 80.594 6.50792Z" fill="#8C84F8"/>
<path d="M75.3031 19.8066V20.2744H75.6998C76.3955 20.2744 76.3405 19.9625 76.3405 23.9359C76.3405 25.9756 76.3161 27.3915 76.2795 27.4477C76.1941 27.5912 73.9545 27.6223 73.7409 27.4789L73.5944 27.3853V23.992C73.5944 20.6549 73.5944 20.5988 73.7226 20.4366C73.8324 20.2931 73.8873 20.2744 74.2413 20.2744H74.6318V19.8066V19.3387H74.9675H75.3031V19.8066Z" fill="#8C84F8"/>
<path d="M70.5705 5.504C71.6425 5.888 72.1785 6.4 72.1785 7.04C72.1785 7.248 72.0825 7.64 71.8905 8.216L67.2825 21.536C67.2505 21.648 67.1945 21.784 67.1145 21.944C67.0345 22.104 66.8185 22.32 66.4665 22.592C66.1305 22.848 65.7225 22.976 65.2425 22.976C64.7785 22.976 64.3705 22.848 64.0185 22.592C63.6825 22.32 63.4585 22.056 63.3465 21.8L60.5385 13.52C58.7625 18.768 57.8585 21.44 57.8265 21.536C57.7945 21.632 57.7225 21.768 57.6105 21.944C57.4985 22.12 57.3705 22.28 57.2265 22.424C56.8585 22.792 56.4185 22.976 55.9065 22.976C55.3945 22.976 54.9705 22.856 54.6345 22.616C54.3145 22.376 54.0985 22.136 53.9865 21.896L53.8185 21.536L49.1865 8.216C49.0105 7.688 48.9225 7.296 48.9225 7.04C48.9225 6.4 49.4585 5.896 50.5305 5.528C50.9945 5.368 51.4105 5.288 51.7785 5.288C52.1625 5.288 52.4505 5.416 52.6425 5.672C52.8505 5.928 53.0345 6.32 53.1945 6.848L55.8345 14.864L58.4505 6.968C58.6745 6.296 59.0825 5.832 59.6745 5.576C59.9305 5.464 60.2585 5.408 60.6585 5.408C61.0745 5.408 61.4585 5.544 61.8105 5.816C62.1625 6.072 62.3865 6.328 62.4825 6.584L65.2425 14.912L67.8825 6.848C68.0105 6.48 68.1145 6.208 68.1945 6.032C68.2745 5.856 68.4185 5.688 68.6265 5.528C68.8505 5.352 69.1225 5.264 69.4425 5.264C69.7625 5.264 70.1385 5.344 70.5705 5.504Z" fill="white"/>
<path d="M102.424 20.024C102.664 20.6 102.784 21.016 102.784 21.272C102.784 21.88 102.288 22.392 101.296 22.808C100.784 23.032 100.368 23.144 100.048 23.144C99.744 23.144 99.488 23.072 99.28 22.928C99.088 22.768 98.944 22.608 98.848 22.448C98.688 22.144 98.064 20.696 96.976 18.104L96.232 18.152H93.208V20.864C93.208 21.232 93.192 21.512 93.16 21.704C93.144 21.88 93.072 22.088 92.944 22.328C92.72 22.76 92.096 22.976 91.072 22.976C89.952 22.976 89.296 22.68 89.104 22.088C89.008 21.816 88.96 21.4 88.96 20.84V7.52C88.96 7.152 88.968 6.88 88.984 6.704C89.016 6.512 89.096 6.296 89.224 6.056C89.448 5.624 90.072 5.408 91.096 5.408H96.28C97.688 5.408 99.056 5.92 100.384 6.944C101.024 7.44 101.552 8.112 101.968 8.96C102.384 9.808 102.592 10.752 102.592 11.792C102.592 13.6 101.992 15.088 100.792 16.256C101.144 17.104 101.688 18.36 102.424 20.024ZM93.208 13.904H96.28C96.744 13.904 97.208 13.728 97.672 13.376C98.136 13.024 98.368 12.496 98.368 11.792C98.368 11.088 98.136 10.56 97.672 10.208C97.208 9.84 96.728 9.656 96.232 9.656H93.208V13.904ZM108.349 18.752H115.741C116.109 18.752 116.381 18.768 116.557 18.8C116.749 18.816 116.965 18.888 117.205 19.016C117.637 19.24 117.853 19.864 117.853 20.888C117.853 22.008 117.557 22.664 116.965 22.856C116.693 22.952 116.277 23 115.717 23H106.213C105.093 23 104.437 22.696 104.245 22.088C104.149 21.832 104.101 21.424 104.101 20.864V7.52C104.101 6.704 104.253 6.152 104.557 5.864C104.861 5.56 105.437 5.408 106.285 5.408H115.741C116.109 5.408 116.381 5.424 116.557 5.456C116.749 5.472 116.965 5.544 117.205 5.672C117.637 5.896 117.853 6.52 117.853 7.544C117.853 8.664 117.557 9.32 116.965 9.512C116.693 9.608 116.277 9.656 115.717 9.656H108.349V12.08H113.101C113.469 12.08 113.741 12.096 113.917 12.128C114.109 12.144 114.325 12.216 114.565 12.344C114.997 12.568 115.213 13.192 115.213 14.216C115.213 15.336 114.909 15.992 114.301 16.184C114.029 16.28 113.613 16.328 113.053 16.328H108.349V18.752Z" fill="white"/>
</svg>
